<?xml version="1.0" encoding="UTF-8" standalone="no"?>
<svg
   xmlns:dc="http://purl.org/dc/elements/1.1/"
   xmlns:cc="http://creativecommons.org/ns#"
   xmlns:rdf="http://www.w3.org/1999/02/22-rdf-syntax-ns#"
   xmlns:svg="http://www.w3.org/2000/svg"
   xmlns="http://www.w3.org/2000/svg"
   xmlns:sodipodi="http://sodipodi.sourceforge.net/DTD/sodipodi-0.dtd"
   xmlns:inkscape="http://www.inkscape.org/namespaces/inkscape"
   version="1.1"
   id="Capa_1"
   x="0px"
   y="0px"
   viewBox="0 0 58 58"
   style="enable-background:new 0 0 58 58;"
   xml:space="preserve"
   sodipodi:docname="change-directory.svg"
   inkscape:version="1.0.1 (3bc2e813f5, 2020-09-07)"><metadata
   id="metadata43"><rdf:RDF><cc:Work
       rdf:about=""><dc:format>image/svg+xml</dc:format><dc:type
         rdf:resource="http://purl.org/dc/dcmitype/StillImage" /><dc:title></dc:title></cc:Work></rdf:RDF></metadata><defs
   id="defs41" /><sodipodi:namedview
   pagecolor="#ffffff"
   bordercolor="#666666"
   borderopacity="1"
   objecttolerance="10"
   gridtolerance="10"
   guidetolerance="10"
   inkscape:pageopacity="0"
   inkscape:pageshadow="2"
   inkscape:window-width="1280"
   inkscape:window-height="972"
   id="namedview39"
   showgrid="false"
   inkscape:zoom="3.1681035"
   inkscape:cx="-32.711591"
   inkscape:cy="70.548713"
   inkscape:window-x="-8"
   inkscape:window-y="-8"
   inkscape:window-maximized="1"
   inkscape:current-layer="g932" />
<path
   style="fill:#EFCE4A;"
   d="M46.324,52.5H1.565c-1.03,0-1.779-0.978-1.51-1.973l10.166-27.871  c0.184-0.682,0.803-1.156,1.51-1.156H56.49c1.03,0,1.51,0.984,1.51,1.973L47.834,51.344C47.65,52.026,47.031,52.5,46.324,52.5z"
   id="path2" />
<g
   id="g6">
	<path
   style="fill:#EBBA16;"
   d="M50.268,12.5H25l-5-7H1.732C0.776,5.5,0,6.275,0,7.232V49.96c0.069,0.002,0.138,0.006,0.205,0.01   l10.015-27.314c0.184-0.683,0.803-1.156,1.51-1.156H52v-7.268C52,13.275,51.224,12.5,50.268,12.5z"
   id="path4" />
</g>
<g
   id="g8">
</g>
<g
   id="g10">
</g>
<g
   id="g12">
</g>
<g
   id="g14">
</g>
<g
   id="g16">
</g>
<g
   id="g18">
</g>
<g
   id="g20">
</g>
<g
   id="g22">
</g>
<g
   id="g24">
</g>
<g
   id="g26">
</g>
<g
   id="g28">
</g>
<g
   id="g30">
</g>
<g
   id="g32">
</g>
<g
   id="g34">
</g>
<g
   id="g36">
</g>
<g
   id="g932"
   transform="matrix(0.71614736,0,0,0.71614736,11.479243,19.342453)"><path
     style="fill:#43b05c;stroke-width:1.5583385;stroke-miterlimit:4;stroke-dasharray:none;stroke:#43b05c;stroke-opacity:1"
     d="m 1,24.5 c -0.553,0 -1,-0.447 -1,-1 0,-7.168 5.832,-13 13,-13 h 25 c 0.553,0 1,0.447 1,1 0,0.553 -0.447,1 -1,1 H 13 c -6.065,0 -11,4.935 -11,11 0,0.553 -0.447,1 -1,1 z"
     id="path868" /><polygon
     style="fill:#43b05c"
     points="38,19.5 49,11.5 38,3.5 "
     id="polygon870" /><path
     style="fill:#43b05c;stroke:#43b05c;stroke-opacity:1;stroke-width:1.5583385;stroke-miterlimit:4;stroke-dasharray:none"
     d="M 37,39.5 H 12 c -0.553,0 -1,-0.447 -1,-1 0,-0.553 0.447,-1 1,-1 h 25 c 6.065,0 11,-4.935 11,-11 0,-0.553 0.447,-1 1,-1 0.553,0 1,0.447 1,1 0,7.168 -5.832,13 -13,13 z"
     id="path872" /><polygon
     style="fill:#43b05c"
     points="12,30.5 1,38.5 12,46.5 "
     id="polygon874" /><g
     id="g876">
</g><g
     id="g878">
</g><g
     id="g880">
</g><g
     id="g882">
</g><g
     id="g884">
</g><g
     id="g886">
</g><g
     id="g888">
</g><g
     id="g890">
</g><g
     id="g892">
</g><g
     id="g894">
</g><g
     id="g896">
</g><g
     id="g898">
</g><g
     id="g900">
</g><g
     id="g902">
</g><g
     id="g904">
</g></g></svg>
